<svg viewBox="0 0 1083 423" xmlns="http://www.w3.org/2000/svg"><style>text{white-space:pre;font-family:monospace;font-size:22px;letter-spacing:0;word-spacing:0;text-rendering:geometricPrecision;font-variant-ligatures:none}.fg{fill:#abb2bf}.k{fill:#282c34}.r{fill:#e06c75}.g{fill:#98c379}.y{fill:#e5c07b}.b{fill:#61afef}.m{fill:#c678dd}.c{fill:#56b6c2}.w{fill:#abb2bf}.K{fill:#5c6370}.R{fill:#e06c75}.G{fill:#98c379}.Y{fill:#e5c07b}.B{fill:#61afef}.M{fill:#c678dd}.C{fill:#56b6c2}.W{fill:#fff}.bold{font-weight:bold}.italic{font-style:italic}.underline{text-decoration:underline}</style><defs><clipPath id="terminal-clip"><rect width="1083" height="423" /></clipPath><pattern id="shade-light" width="4" height="4" patternUnits="userSpaceOnUse"><rect width="1" height="1" fill="#abb2bf" /></pattern><pattern id="shade-medium" width="2" height="2" patternUnits="userSpaceOnUse"><rect width="1" height="1" fill="#abb2bf" /><rect x="1" y="1" width="1" height="1" fill="#abb2bf" /></pattern><pattern id="shade-dark" width="2" height="2" patternUnits="userSpaceOnUse"><rect width="2" height="2" fill="#abb2bf" /><rect x="1" y="1" width="1" height="1" fill="#282c34" /></pattern></defs><g transform="translate(0,0)" clip-path="url(#terminal-clip)"><g xml:space="preserve"><g><animate attributeName="visibility" values="hidden;visible;hidden;hidden" keyTimes="0.000;0.117;0.231;1.000" dur="17.546s" calcMode="discrete" repeatCount="indefinite" /><rect x="0" y="0" width="26" height="26" fill="#61afef" /><text x="0" y="19.8" textLength="26" class="fg">  </text></g><g><animate attributeName="visibility" values="hidden;visible;hidden;hidden" keyTimes="0.000;0.231;0.347;1.000" dur="17.546s" calcMode="discrete" repeatCount="indefinite" /><rect x="0" y="0" width="26" height="26" fill="#e5c07b" /><rect x="234" y="0" width="26" height="26" fill="#e5c07b" /><text x="0" y="19.8" textLength="26" class="fg">  </text><text x="26" y="19.8" textLength="208" class="fg">                </text><text x="234" y="19.8" textLength="26" class="fg">  </text></g><g><animate attributeName="visibility" values="hidden;visible;hidden;hidden" keyTimes="0.000;0.347;0.459;1.000" dur="17.546s" calcMode="discrete" repeatCount="indefinite" /><rect x="0" y="0" width="260" height="26" fill="#e06c75" /><text x="0" y="19.8" textLength="260" class="fg">                    </text></g><g><animate attributeName="visibility" values="hidden;visible;hidden;hidden" keyTimes="0.000;0.459;0.575;1.000" dur="17.546s" calcMode="discrete" repeatCount="indefinite" /><rect x="0" y="0" width="26" height="26" fill="#98c379" /><rect x="26" y="0" width="234" height="26" fill="#e06c75" /><text x="0" y="19.8" textLength="26" class="fg">  </text><text x="26" y="19.8" textLength="234" class="fg">                  </text></g><g><animate attributeName="visibility" values="hidden;visible;hidden;hidden" keyTimes="0.000;0.575;0.689;1.000" dur="17.546s" calcMode="discrete" repeatCount="indefinite" /><rect x="0" y="0" width="260" height="26" fill="#61afef" /><text x="0" y="19.8" textLength="260" class="fg">                    </text></g><g><animate attributeName="visibility" values="hidden;visible;visible" keyTimes="0.000;0.689;1.000" dur="17.546s" calcMode="discrete" repeatCount="indefinite" /><rect x="0" y="0" width="26" height="26" fill="#5c6370" /><rect x="52" y="0" width="26" height="26" fill="#5c6370" /><rect x="104" y="0" width="26" height="26" fill="#5c6370" /><rect x="156" y="0" width="26" height="26" fill="#5c6370" /><rect x="208" y="0" width="26" height="26" fill="#5c6370" /><text x="0" y="19.8" textLength="26" class="fg">  </text><text x="26" y="19.8" textLength="26" class="fg">  </text><text x="52" y="19.8" textLength="26" class="fg">  </text><text x="78" y="19.8" textLength="26" class="fg">  </text><text x="104" y="19.8" textLength="26" class="fg">  </text><text x="130" y="19.8" textLength="26" class="fg">  </text><text x="156" y="19.8" textLength="26" class="fg">  </text><text x="182" y="19.8" textLength="26" class="fg">  </text><text x="208" y="19.8" textLength="26" class="fg">  </text></g><g><animate attributeName="visibility" values="hidden;visible;hidden;hidden" keyTimes="0.000;0.117;0.231;1.000" dur="17.546s" calcMode="discrete" repeatCount="indefinite" /><rect x="26" y="26" width="26" height="26" fill="#61afef" /><text x="0" y="45.8" textLength="26" class="fg">  </text><text x="26" y="45.8" textLength="26" class="fg">  </text></g><g><animate attributeName="visibility" values="hidden;visible;hidden;hidden" keyTimes="0.000;0.231;0.347;1.000" dur="17.546s" calcMode="discrete" repeatCount="indefinite" /><rect x="26" y="26" width="26" height="26" fill="#e5c07b" /><rect x="208" y="26" width="26" height="26" fill="#e5c07b" /><text x="0" y="45.8" textLength="26" class="fg">  </text><text x="26" y="45.8" textLength="26" class="fg">  </text><text x="52" y="45.8" textLength="156" class="fg">            </text><text x="208" y="45.8" textLength="26" class="fg">  </text></g><g><animate attributeName="visibility" values="hidden;visible;hidden;hidden" keyTimes="0.000;0.347;0.459;1.000" dur="17.546s" calcMode="discrete" repeatCount="indefinite" /><rect x="0" y="26" width="26" height="26" fill="#e06c75" /><rect x="234" y="26" width="26" height="26" fill="#e06c75" /><text x="0" y="45.8" textLength="26" class="fg">  </text><text x="26" y="45.8" textLength="208" class="fg">                </text><text x="234" y="45.8" textLength="26" class="fg">  </text></g><g><animate attributeName="visibility" values="hidden;visible;hidden;hidden" keyTimes="0.000;0.459;0.575;1.000" dur="17.546s" calcMode="discrete" repeatCount="indefinite" /><rect x="0" y="26" width="26" height="26" fill="#98c379" /><rect x="234" y="26" width="26" height="26" fill="#e5c07b" /><text x="0" y="45.8" textLength="26" class="fg">  </text><text x="26" y="45.8" textLength="208" class="fg">                </text><text x="234" y="45.8" textLength="26" class="fg">  </text></g><g><animate attributeName="visibility" values="hidden;visible;hidden;hidden" keyTimes="0.000;0.575;0.689;1.000" dur="17.546s" calcMode="discrete" repeatCount="indefinite" /><rect x="0" y="26" width="26" height="26" fill="#98c379" /><rect x="52" y="26" width="26" height="26" fill="#98c379" /><rect x="104" y="26" width="26" height="26" fill="#98c379" /><rect x="156" y="26" width="26" height="26" fill="#98c379" /><rect x="208" y="26" width="26" height="26" fill="#98c379" /><text x="0" y="45.8" textLength="26" class="fg">  </text><text x="26" y="45.8" textLength="26" class="fg">  </text><text x="52" y="45.8" textLength="26" class="fg">  </text><text x="78" y="45.8" textLength="26" class="fg">  </text><text x="104" y="45.8" textLength="26" class="fg">  </text><text x="130" y="45.8" textLength="26" class="fg">  </text><text x="156" y="45.8" textLength="26" class="fg">  </text><text x="182" y="45.8" textLength="26" class="fg">  </text><text x="208" y="45.8" textLength="26" class="fg">  </text></g><g><animate attributeName="visibility" values="hidden;visible;visible" keyTimes="0.000;0.689;1.000" dur="17.546s" calcMode="discrete" repeatCount="indefinite" /><rect x="26" y="26" width="26" height="26" fill="#5c6370" /><rect x="78" y="26" width="26" height="26" fill="#5c6370" /><rect x="130" y="26" width="26" height="26" fill="#5c6370" /><rect x="182" y="26" width="26" height="26" fill="#5c6370" /><rect x="234" y="26" width="26" height="26" fill="#5c6370" /><text x="0" y="45.8" textLength="26" class="fg">  </text><text x="26" y="45.8" textLength="26" class="fg">  </text><text x="52" y="45.8" textLength="26" class="fg">  </text><text x="78" y="45.8" textLength="26" class="fg">  </text><text x="104" y="45.8" textLength="26" class="fg">  </text><text x="130" y="45.8" textLength="26" class="fg">  </text><text x="156" y="45.8" textLength="26" class="fg">  </text><text x="182" y="45.8" textLength="26" class="fg">  </text><text x="208" y="45.8" textLength="26" class="fg">  </text><text x="234" y="45.8" textLength="26" class="fg">  </text></g><g><animate attributeName="visibility" values="hidden;visible;hidden;hidden" keyTimes="0.000;0.117;0.231;1.000" dur="17.546s" calcMode="discrete" repeatCount="indefinite" /><rect x="52" y="52" width="26" height="26" fill="#61afef" /><text x="0" y="71.8" textLength="52" class="fg">    </text><text x="52" y="71.8" textLength="26" class="fg">  </text></g><g><animate attributeName="visibility" values="hidden;visible;hidden;hidden" keyTimes="0.000;0.231;0.347;1.000" dur="17.546s" calcMode="discrete" repeatCount="indefinite" /><rect x="52" y="52" width="26" height="26" fill="#e5c07b" /><rect x="182" y="52" width="26" height="26" fill="#e5c07b" /><text x="0" y="71.8" textLength="52" class="fg">    </text><text x="52" y="71.8" textLength="26" class="fg">  </text><text x="78" y="71.8" textLength="104" class="fg">        </text><text x="182" y="71.8" textLength="26" class="fg">  </text></g><g><animate attributeName="visibility" values="hidden;visible;hidden;hidden" keyTimes="0.000;0.347;0.459;1.000" dur="17.546s" calcMode="discrete" repeatCount="indefinite" /><rect x="0" y="52" width="26" height="26" fill="#e06c75" /><rect x="234" y="52" width="26" height="26" fill="#e06c75" /><text x="0" y="71.8" textLength="26" class="fg">  </text><text x="26" y="71.8" textLength="208" class="fg">                </text><text x="234" y="71.8" textLength="26" class="fg">  </text></g><g><animate attributeName="visibility" values="hidden;visible;hidden;hidden" keyTimes="0.000;0.459;0.575;1.000" dur="17.546s" calcMode="discrete" repeatCount="indefinite" /><rect x="0" y="52" width="26" height="26" fill="#98c379" /><rect x="234" y="52" width="26" height="26" fill="#e5c07b" /><text x="0" y="71.8" textLength="26" class="fg">  </text><text x="26" y="71.8" textLength="208" class="fg">                </text><text x="234" y="71.8" textLength="26" class="fg">  </text></g><g><animate attributeName="visibility" values="hidden;visible;hidden;hidden" keyTimes="0.000;0.575;0.689;1.000" dur="17.546s" calcMode="discrete" repeatCount="indefinite" /><rect x="0" y="52" width="260" height="26" fill="#61afef" /><text x="0" y="71.8" textLength="260" class="fg">                    </text></g><g><animate attributeName="visibility" values="hidden;visible;visible" keyTimes="0.000;0.689;1.000" dur="17.546s" calcMode="discrete" repeatCount="indefinite" /><rect x="0" y="52" width="26" height="26" fill="#5c6370" /><rect x="52" y="52" width="26" height="26" fill="#5c6370" /><rect x="104" y="52" width="26" height="26" fill="#5c6370" /><rect x="156" y="52" width="26" height="26" fill="#5c6370" /><rect x="208" y="52" width="26" height="26" fill="#5c6370" /><text x="0" y="71.8" textLength="26" class="fg">  </text><text x="26" y="71.8" textLength="26" class="fg">  </text><text x="52" y="71.8" textLength="26" class="fg">  </text><text x="78" y="71.8" textLength="26" class="fg">  </text><text x="104" y="71.8" textLength="26" class="fg">  </text><text x="130" y="71.8" textLength="26" class="fg">  </text><text x="156" y="71.8" textLength="26" class="fg">  </text><text x="182" y="71.8" textLength="26" class="fg">  </text><text x="208" y="71.8" textLength="26" class="fg">  </text></g><g><animate attributeName="visibility" values="hidden;visible;hidden;hidden" keyTimes="0.000;0.117;0.231;1.000" dur="17.546s" calcMode="discrete" repeatCount="indefinite" /><rect x="78" y="78" width="26" height="26" fill="#61afef" /><text x="0" y="97.8" textLength="78" class="fg">      </text><text x="78" y="97.8" textLength="26" class="fg">  </text></g><g><animate attributeName="visibility" values="hidden;visible;hidden;hidden" keyTimes="0.000;0.231;0.347;1.000" dur="17.546s" calcMode="discrete" repeatCount="indefinite" /><rect x="78" y="78" width="26" height="26" fill="#e5c07b" /><rect x="156" y="78" width="26" height="26" fill="#e5c07b" /><text x="0" y="97.8" textLength="78" class="fg">      </text><text x="78" y="97.8" textLength="26" class="fg">  </text><text x="104" y="97.8" textLength="52" class="fg">    </text><text x="156" y="97.8" textLength="26" class="fg">  </text></g><g><animate attributeName="visibility" values="hidden;visible;hidden;hidden" keyTimes="0.000;0.347;0.459;1.000" dur="17.546s" calcMode="discrete" repeatCount="indefinite" /><rect x="0" y="78" width="26" height="26" fill="#e06c75" /><rect x="234" y="78" width="26" height="26" fill="#e06c75" /><text x="0" y="97.8" textLength="26" class="fg">  </text><text x="26" y="97.8" textLength="208" class="fg">                </text><text x="234" y="97.8" textLength="26" class="fg">  </text></g><g><animate attributeName="visibility" values="hidden;visible;hidden;hidden" keyTimes="0.000;0.459;0.575;1.000" dur="17.546s" calcMode="discrete" repeatCount="indefinite" /><rect x="0" y="78" width="26" height="26" fill="#98c379" /><rect x="234" y="78" width="26" height="26" fill="#e5c07b" /><text x="0" y="97.8" textLength="26" class="fg">  </text><text x="26" y="97.8" textLength="208" class="fg">                </text><text x="234" y="97.8" textLength="26" class="fg">  </text></g><g><animate attributeName="visibility" values="hidden;visible;hidden;hidden" keyTimes="0.000;0.575;0.689;1.000" dur="17.546s" calcMode="discrete" repeatCount="indefinite" /><rect x="0" y="78" width="26" height="26" fill="#98c379" /><rect x="52" y="78" width="26" height="26" fill="#98c379" /><rect x="104" y="78" width="26" height="26" fill="#98c379" /><rect x="156" y="78" width="26" height="26" fill="#98c379" /><rect x="208" y="78" width="26" height="26" fill="#98c379" /><text x="0" y="97.8" textLength="26" class="fg">  </text><text x="26" y="97.8" textLength="26" class="fg">  </text><text x="52" y="97.8" textLength="26" class="fg">  </text><text x="78" y="97.8" textLength="26" class="fg">  </text><text x="104" y="97.8" textLength="26" class="fg">  </text><text x="130" y="97.8" textLength="26" class="fg">  </text><text x="156" y="97.8" textLength="26" class="fg">  </text><text x="182" y="97.8" textLength="26" class="fg">  </text><text x="208" y="97.8" textLength="26" class="fg">  </text></g><g><animate attributeName="visibility" values="hidden;visible;visible" keyTimes="0.000;0.689;1.000" dur="17.546s" calcMode="discrete" repeatCount="indefinite" /><rect x="26" y="78" width="26" height="26" fill="#5c6370" /><rect x="78" y="78" width="26" height="26" fill="#5c6370" /><rect x="130" y="78" width="26" height="26" fill="#5c6370" /><rect x="182" y="78" width="26" height="26" fill="#5c6370" /><rect x="234" y="78" width="26" height="26" fill="#5c6370" /><text x="0" y="97.8" textLength="26" class="fg">  </text><text x="26" y="97.8" textLength="26" class="fg">  </text><text x="52" y="97.8" textLength="26" class="fg">  </text><text x="78" y="97.8" textLength="26" class="fg">  </text><text x="104" y="97.8" textLength="26" class="fg">  </text><text x="130" y="97.8" textLength="26" class="fg">  </text><text x="156" y="97.8" textLength="26" class="fg">  </text><text x="182" y="97.8" textLength="26" class="fg">  </text><text x="208" y="97.8" textLength="26" class="fg">  </text><text x="234" y="97.8" textLength="26" class="fg">  </text></g><g><animate attributeName="visibility" values="hidden;visible;hidden;hidden" keyTimes="0.000;0.117;0.231;1.000" dur="17.546s" calcMode="discrete" repeatCount="indefinite" /><rect x="104" y="104" width="26" height="26" fill="#61afef" /><text x="0" y="123.8" textLength="104" class="fg">        </text><text x="104" y="123.8" textLength="26" class="fg">  </text></g><g><animate attributeName="visibility" values="hidden;visible;hidden;hidden" keyTimes="0.000;0.231;0.347;1.000" dur="17.546s" calcMode="discrete" repeatCount="indefinite" /><rect x="104" y="104" width="52" height="26" fill="#e5c07b" /><text x="0" y="123.8" textLength="104" class="fg">        </text><text x="104" y="123.8" textLength="52" class="fg">    </text></g><g><animate attributeName="visibility" values="hidden;visible;hidden;hidden" keyTimes="0.000;0.347;0.459;1.000" dur="17.546s" calcMode="discrete" repeatCount="indefinite" /><rect x="0" y="104" width="26" height="26" fill="#e06c75" /><rect x="234" y="104" width="26" height="26" fill="#e06c75" /><text x="0" y="123.8" textLength="26" class="fg">  </text><text x="26" y="123.8" textLength="208" class="fg">                </text><text x="234" y="123.8" textLength="26" class="fg">  </text></g><g><animate attributeName="visibility" values="hidden;visible;hidden;hidden" keyTimes="0.000;0.459;0.575;1.000" dur="17.546s" calcMode="discrete" repeatCount="indefinite" /><rect x="0" y="104" width="26" height="26" fill="#98c379" /><rect x="234" y="104" width="26" height="26" fill="#e5c07b" /><text x="0" y="123.8" textLength="26" class="fg">  </text><text x="26" y="123.8" textLength="208" class="fg">                </text><text x="234" y="123.8" textLength="26" class="fg">  </text></g><g><animate attributeName="visibility" values="hidden;visible;hidden;hidden" keyTimes="0.000;0.575;0.689;1.000" dur="17.546s" calcMode="discrete" repeatCount="indefinite" /><rect x="0" y="104" width="260" height="26" fill="#61afef" /><text x="0" y="123.8" textLength="260" class="fg">                    </text></g><g><animate attributeName="visibility" values="hidden;visible;visible" keyTimes="0.000;0.689;1.000" dur="17.546s" calcMode="discrete" repeatCount="indefinite" /><rect x="0" y="104" width="26" height="26" fill="#5c6370" /><rect x="52" y="104" width="26" height="26" fill="#5c6370" /><rect x="104" y="104" width="26" height="26" fill="#5c6370" /><rect x="156" y="104" width="26" height="26" fill="#5c6370" /><rect x="208" y="104" width="26" height="26" fill="#5c6370" /><text x="0" y="123.8" textLength="26" class="fg">  </text><text x="26" y="123.8" textLength="26" class="fg">  </text><text x="52" y="123.8" textLength="26" class="fg">  </text><text x="78" y="123.8" textLength="26" class="fg">  </text><text x="104" y="123.8" textLength="26" class="fg">  </text><text x="130" y="123.8" textLength="26" class="fg">  </text><text x="156" y="123.8" textLength="26" class="fg">  </text><text x="182" y="123.8" textLength="26" class="fg">  </text><text x="208" y="123.8" textLength="26" class="fg">  </text></g><g><animate attributeName="visibility" values="hidden;visible;hidden;hidden" keyTimes="0.000;0.002;0.117;1.000" dur="17.546s" calcMode="discrete" repeatCount="indefinite" /><rect x="130" y="130" width="26" height="26" fill="#e06c75" /><text x="0" y="149.8" textLength="130" class="fg">          </text><text x="130" y="149.8" textLength="26" class="fg">  </text></g><g><animate attributeName="visibility" values="hidden;visible;hidden;hidden" keyTimes="0.000;0.117;0.232;1.000" dur="17.546s" calcMode="discrete" repeatCount="indefinite" /><rect x="130" y="130" width="26" height="26" fill="#61afef" /><text x="0" y="149.8" textLength="130" class="fg">          </text><text x="130" y="149.8" textLength="26" class="fg">  </text></g><g><animate attributeName="visibility" values="hidden;visible;hidden;hidden" keyTimes="0.000;0.232;0.347;1.000" dur="17.546s" calcMode="discrete" repeatCount="indefinite" /><rect x="104" y="130" width="52" height="26" fill="#e5c07b" /><text x="0" y="149.8" textLength="104" class="fg">        </text><text x="104" y="149.8" textLength="52" class="fg">    </text></g><g><animate attributeName="visibility" values="hidden;visible;hidden;hidden" keyTimes="0.000;0.347;0.461;1.000" dur="17.546s" calcMode="discrete" repeatCount="indefinite" /><rect x="0" y="130" width="26" height="26" fill="#e06c75" /><rect x="234" y="130" width="26" height="26" fill="#e06c75" /><text x="0" y="149.8" textLength="26" class="fg">  </text><text x="26" y="149.8" textLength="208" class="fg">                </text><text x="234" y="149.8" textLength="26" class="fg">  </text></g><g><animate attributeName="visibility" values="hidden;visible;hidden;hidden" keyTimes="0.000;0.461;0.575;1.000" dur="17.546s" calcMode="discrete" repeatCount="indefinite" /><rect x="0" y="130" width="26" height="26" fill="#98c379" /><rect x="234" y="130" width="26" height="26" fill="#e5c07b" /><text x="0" y="149.8" textLength="26" class="fg">  </text><text x="26" y="149.8" textLength="208" class="fg">                </text><text x="234" y="149.8" textLength="26" class="fg">  </text></g><g><animate attributeName="visibility" values="hidden;visible;hidden;hidden" keyTimes="0.000;0.575;0.689;1.000" dur="17.546s" calcMode="discrete" repeatCount="indefinite" /><rect x="0" y="130" width="26" height="26" fill="#98c379" /><rect x="52" y="130" width="26" height="26" fill="#98c379" /><rect x="104" y="130" width="26" height="26" fill="#98c379" /><rect x="156" y="130" width="26" height="26" fill="#98c379" /><rect x="208" y="130" width="26" height="26" fill="#98c379" /><text x="0" y="149.8" textLength="26" class="fg">  </text><text x="26" y="149.8" textLength="26" class="fg">  </text><text x="52" y="149.8" textLength="26" class="fg">  </text><text x="78" y="149.8" textLength="26" class="fg">  </text><text x="104" y="149.8" textLength="26" class="fg">  </text><text x="130" y="149.8" textLength="26" class="fg">  </text><text x="156" y="149.8" textLength="26" class="fg">  </text><text x="182" y="149.8" textLength="26" class="fg">  </text><text x="208" y="149.8" textLength="26" class="fg">  </text></g><g><animate attributeName="visibility" values="hidden;visible;visible" keyTimes="0.000;0.689;1.000" dur="17.546s" calcMode="discrete" repeatCount="indefinite" /><rect x="26" y="130" width="26" height="26" fill="#5c6370" /><rect x="78" y="130" width="26" height="26" fill="#5c6370" /><rect x="130" y="130" width="26" height="26" fill="#5c6370" /><rect x="182" y="130" width="26" height="26" fill="#5c6370" /><rect x="234" y="130" width="26" height="26" fill="#5c6370" /><text x="0" y="149.8" textLength="26" class="fg">  </text><text x="26" y="149.8" textLength="26" class="fg">  </text><text x="52" y="149.8" textLength="26" class="fg">  </text><text x="78" y="149.8" textLength="26" class="fg">  </text><text x="104" y="149.8" textLength="26" class="fg">  </text><text x="130" y="149.8" textLength="26" class="fg">  </text><text x="156" y="149.8" textLength="26" class="fg">  </text><text x="182" y="149.8" textLength="26" class="fg">  </text><text x="208" y="149.8" textLength="26" class="fg">  </text><text x="234" y="149.8" textLength="26" class="fg">  </text></g><g><animate attributeName="visibility" values="hidden;visible;hidden;hidden" keyTimes="0.000;0.117;0.232;1.000" dur="17.546s" calcMode="discrete" repeatCount="indefinite" /><rect x="156" y="156" width="26" height="26" fill="#61afef" /><text x="0" y="175.8" textLength="156" class="fg">            </text><text x="156" y="175.8" textLength="26" class="fg">  </text></g><g><animate attributeName="visibility" values="hidden;visible;hidden;hidden" keyTimes="0.000;0.232;0.347;1.000" dur="17.546s" calcMode="discrete" repeatCount="indefinite" /><rect x="78" y="156" width="26" height="26" fill="#e5c07b" /><rect x="156" y="156" width="26" height="26" fill="#e5c07b" /><text x="0" y="175.8" textLength="78" class="fg">      </text><text x="78" y="175.8" textLength="26" class="fg">  </text><text x="104" y="175.8" textLength="52" class="fg">    </text><text x="156" y="175.8" textLength="26" class="fg">  </text></g><g><animate attributeName="visibility" values="hidden;visible;hidden;hidden" keyTimes="0.000;0.347;0.461;1.000" dur="17.546s" calcMode="discrete" repeatCount="indefinite" /><rect x="0" y="156" width="26" height="26" fill="#e06c75" /><rect x="234" y="156" width="26" height="26" fill="#e06c75" /><text x="0" y="175.8" textLength="26" class="fg">  </text><text x="26" y="175.8" textLength="208" class="fg">                </text><text x="234" y="175.8" textLength="26" class="fg">  </text></g><g><animate attributeName="visibility" values="hidden;visible;hidden;hidden" keyTimes="0.000;0.461;0.575;1.000" dur="17.546s" calcMode="discrete" repeatCount="indefinite" /><rect x="0" y="156" width="26" height="26" fill="#98c379" /><rect x="234" y="156" width="26" height="26" fill="#e5c07b" /><text x="0" y="175.8" textLength="26" class="fg">  </text><text x="26" y="175.8" textLength="208" class="fg">                </text><text x="234" y="175.8" textLength="26" class="fg">  </text></g><g><animate attributeName="visibility" values="hidden;visible;hidden;hidden" keyTimes="0.000;0.575;0.689;1.000" dur="17.546s" calcMode="discrete" repeatCount="indefinite" /><rect x="0" y="156" width="260" height="26" fill="#61afef" /><text x="0" y="175.8" textLength="260" class="fg">                    </text></g><g><animate attributeName="visibility" values="hidden;visible;visible" keyTimes="0.000;0.689;1.000" dur="17.546s" calcMode="discrete" repeatCount="indefinite" /><rect x="0" y="156" width="26" height="26" fill="#5c6370" /><rect x="52" y="156" width="26" height="26" fill="#5c6370" /><rect x="104" y="156" width="26" height="26" fill="#5c6370" /><rect x="156" y="156" width="26" height="26" fill="#5c6370" /><rect x="208" y="156" width="26" height="26" fill="#5c6370" /><text x="0" y="175.8" textLength="26" class="fg">  </text><text x="26" y="175.8" textLength="26" class="fg">  </text><text x="52" y="175.8" textLength="26" class="fg">  </text><text x="78" y="175.8" textLength="26" class="fg">  </text><text x="104" y="175.8" textLength="26" class="fg">  </text><text x="130" y="175.8" textLength="26" class="fg">  </text><text x="156" y="175.8" textLength="26" class="fg">  </text><text x="182" y="175.8" textLength="26" class="fg">  </text><text x="208" y="175.8" textLength="26" class="fg">  </text></g><g><animate attributeName="visibility" values="hidden;visible;hidden;hidden" keyTimes="0.000;0.117;0.232;1.000" dur="17.546s" calcMode="discrete" repeatCount="indefinite" /><rect x="182" y="182" width="26" height="26" fill="#61afef" /><text x="0" y="201.8" textLength="182" class="fg">              </text><text x="182" y="201.8" textLength="26" class="fg">  </text></g><g><animate attributeName="visibility" values="hidden;visible;hidden;hidden" keyTimes="0.000;0.232;0.347;1.000" dur="17.546s" calcMode="discrete" repeatCount="indefinite" /><rect x="52" y="182" width="26" height="26" fill="#e5c07b" /><rect x="182" y="182" width="26" height="26" fill="#e5c07b" /><text x="0" y="201.8" textLength="52" class="fg">    </text><text x="52" y="201.8" textLength="26" class="fg">  </text><text x="78" y="201.8" textLength="104" class="fg">        </text><text x="182" y="201.8" textLength="26" class="fg">  </text></g><g><animate attributeName="visibility" values="hidden;visible;hidden;hidden" keyTimes="0.000;0.347;0.461;1.000" dur="17.546s" calcMode="discrete" repeatCount="indefinite" /><rect x="0" y="182" width="26" height="26" fill="#e06c75" /><rect x="234" y="182" width="26" height="26" fill="#e06c75" /><text x="0" y="201.8" textLength="26" class="fg">  </text><text x="26" y="201.8" textLength="208" class="fg">                </text><text x="234" y="201.8" textLength="26" class="fg">  </text></g><g><animate attributeName="visibility" values="hidden;visible;hidden;hidden" keyTimes="0.000;0.461;0.575;1.000" dur="17.546s" calcMode="discrete" repeatCount="indefinite" /><rect x="0" y="182" width="26" height="26" fill="#98c379" /><rect x="234" y="182" width="26" height="26" fill="#e5c07b" /><text x="0" y="201.8" textLength="26" class="fg">  </text><text x="26" y="201.8" textLength="208" class="fg">                </text><text x="234" y="201.8" textLength="26" class="fg">  </text></g><g><animate attributeName="visibility" values="hidden;visible;hidden;hidden" keyTimes="0.000;0.575;0.689;1.000" dur="17.546s" calcMode="discrete" repeatCount="indefinite" /><rect x="0" y="182" width="26" height="26" fill="#98c379" /><rect x="52" y="182" width="26" height="26" fill="#98c379" /><rect x="104" y="182" width="26" height="26" fill="#98c379" /><rect x="156" y="182" width="26" height="26" fill="#98c379" /><rect x="208" y="182" width="26" height="26" fill="#98c379" /><text x="0" y="201.8" textLength="26" class="fg">  </text><text x="26" y="201.8" textLength="26" class="fg">  </text><text x="52" y="201.8" textLength="26" class="fg">  </text><text x="78" y="201.8" textLength="26" class="fg">  </text><text x="104" y="201.8" textLength="26" class="fg">  </text><text x="130" y="201.8" textLength="26" class="fg">  </text><text x="156" y="201.8" textLength="26" class="fg">  </text><text x="182" y="201.8" textLength="26" class="fg">  </text><text x="208" y="201.8" textLength="26" class="fg">  </text></g><g><animate attributeName="visibility" values="hidden;visible;visible" keyTimes="0.000;0.689;1.000" dur="17.546s" calcMode="discrete" repeatCount="indefinite" /><rect x="26" y="182" width="26" height="26" fill="#5c6370" /><rect x="78" y="182" width="26" height="26" fill="#5c6370" /><rect x="130" y="182" width="26" height="26" fill="#5c6370" /><rect x="182" y="182" width="26" height="26" fill="#5c6370" /><rect x="234" y="182" width="26" height="26" fill="#5c6370" /><text x="0" y="201.8" textLength="26" class="fg">  </text><text x="26" y="201.8" textLength="26" class="fg">  </text><text x="52" y="201.8" textLength="26" class="fg">  </text><text x="78" y="201.8" textLength="26" class="fg">  </text><text x="104" y="201.8" textLength="26" class="fg">  </text><text x="130" y="201.8" textLength="26" class="fg">  </text><text x="156" y="201.8" textLength="26" class="fg">  </text><text x="182" y="201.8" textLength="26" class="fg">  </text><text x="208" y="201.8" textLength="26" class="fg">  </text><text x="234" y="201.8" textLength="26" class="fg">  </text></g><g><animate attributeName="visibility" values="hidden;visible;hidden;hidden" keyTimes="0.000;0.117;0.232;1.000" dur="17.546s" calcMode="discrete" repeatCount="indefinite" /><rect x="208" y="208" width="26" height="26" fill="#61afef" /><text x="0" y="227.8" textLength="208" class="fg">                </text><text x="208" y="227.8" textLength="26" class="fg">  </text></g><g><animate attributeName="visibility" values="hidden;visible;hidden;hidden" keyTimes="0.000;0.232;0.347;1.000" dur="17.546s" calcMode="discrete" repeatCount="indefinite" /><rect x="26" y="208" width="26" height="26" fill="#e5c07b" /><rect x="208" y="208" width="26" height="26" fill="#e5c07b" /><text x="0" y="227.8" textLength="26" class="fg">  </text><text x="26" y="227.8" textLength="26" class="fg">  </text><text x="52" y="227.8" textLength="156" class="fg">            </text><text x="208" y="227.8" textLength="26" class="fg">  </text></g><g><animate attributeName="visibility" values="hidden;visible;hidden;hidden" keyTimes="0.000;0.347;0.461;1.000" dur="17.546s" calcMode="discrete" repeatCount="indefinite" /><rect x="0" y="208" width="26" height="26" fill="#e06c75" /><rect x="234" y="208" width="26" height="26" fill="#e06c75" /><text x="0" y="227.8" textLength="26" class="fg">  </text><text x="26" y="227.8" textLength="208" class="fg">                </text><text x="234" y="227.8" textLength="26" class="fg">  </text></g><g><animate attributeName="visibility" values="hidden;visible;hidden;hidden" keyTimes="0.000;0.461;0.575;1.000" dur="17.546s" calcMode="discrete" repeatCount="indefinite" /><rect x="0" y="208" width="26" height="26" fill="#98c379" /><rect x="234" y="208" width="26" height="26" fill="#e5c07b" /><text x="0" y="227.8" textLength="26" class="fg">  </text><text x="26" y="227.8" textLength="208" class="fg">                </text><text x="234" y="227.8" textLength="26" class="fg">  </text></g><g><animate attributeName="visibility" values="hidden;visible;hidden;hidden" keyTimes="0.000;0.575;0.689;1.000" dur="17.546s" calcMode="discrete" repeatCount="indefinite" /><rect x="0" y="208" width="260" height="26" fill="#61afef" /><text x="0" y="227.8" textLength="260" class="fg">                    </text></g><g><animate attributeName="visibility" values="hidden;visible;visible" keyTimes="0.000;0.689;1.000" dur="17.546s" calcMode="discrete" repeatCount="indefinite" /><rect x="0" y="208" width="26" height="26" fill="#5c6370" /><rect x="52" y="208" width="26" height="26" fill="#5c6370" /><rect x="104" y="208" width="26" height="26" fill="#5c6370" /><rect x="156" y="208" width="26" height="26" fill="#5c6370" /><rect x="208" y="208" width="26" height="26" fill="#5c6370" /><text x="0" y="227.8" textLength="26" class="fg">  </text><text x="26" y="227.8" textLength="26" class="fg">  </text><text x="52" y="227.8" textLength="26" class="fg">  </text><text x="78" y="227.8" textLength="26" class="fg">  </text><text x="104" y="227.8" textLength="26" class="fg">  </text><text x="130" y="227.8" textLength="26" class="fg">  </text><text x="156" y="227.8" textLength="26" class="fg">  </text><text x="182" y="227.8" textLength="26" class="fg">  </text><text x="208" y="227.8" textLength="26" class="fg">  </text></g><g><animate attributeName="visibility" values="hidden;visible;hidden;hidden" keyTimes="0.000;0.117;0.232;1.000" dur="17.546s" calcMode="discrete" repeatCount="indefinite" /><rect x="234" y="234" width="26" height="26" fill="#61afef" /><text x="0" y="253.8" textLength="234" class="fg">                  </text><text x="234" y="253.8" textLength="26" class="fg">  </text></g><g><animate attributeName="visibility" values="hidden;visible;hidden;hidden" keyTimes="0.000;0.232;0.347;1.000" dur="17.546s" calcMode="discrete" repeatCount="indefinite" /><rect x="0" y="234" width="26" height="26" fill="#e5c07b" /><rect x="234" y="234" width="26" height="26" fill="#e5c07b" /><text x="0" y="253.8" textLength="26" class="fg">  </text><text x="26" y="253.8" textLength="208" class="fg">                </text><text x="234" y="253.8" textLength="26" class="fg">  </text></g><g><animate attributeName="visibility" values="hidden;visible;hidden;hidden" keyTimes="0.000;0.347;0.461;1.000" dur="17.546s" calcMode="discrete" repeatCount="indefinite" /><rect x="0" y="234" width="260" height="26" fill="#e06c75" /><text x="0" y="253.8" textLength="260" class="fg">                    </text></g><g><animate attributeName="visibility" values="hidden;visible;hidden;hidden" keyTimes="0.000;0.461;0.575;1.000" dur="17.546s" calcMode="discrete" repeatCount="indefinite" /><rect x="0" y="234" width="26" height="26" fill="#98c379" /><rect x="26" y="234" width="208" height="26" fill="#61afef" /><rect x="234" y="234" width="26" height="26" fill="#e5c07b" /><text x="0" y="253.8" textLength="26" class="fg">  </text><text x="26" y="253.8" textLength="208" class="fg">                </text><text x="234" y="253.8" textLength="26" class="fg">  </text></g><g><animate attributeName="visibility" values="hidden;visible;hidden;hidden" keyTimes="0.000;0.575;0.689;1.000" dur="17.546s" calcMode="discrete" repeatCount="indefinite" /><rect x="0" y="234" width="26" height="26" fill="#98c379" /><rect x="52" y="234" width="26" height="26" fill="#98c379" /><rect x="104" y="234" width="26" height="26" fill="#98c379" /><rect x="156" y="234" width="26" height="26" fill="#98c379" /><rect x="208" y="234" width="26" height="26" fill="#98c379" /><text x="0" y="253.8" textLength="26" class="fg">  </text><text x="26" y="253.8" textLength="26" class="fg">  </text><text x="52" y="253.8" textLength="26" class="fg">  </text><text x="78" y="253.8" textLength="26" class="fg">  </text><text x="104" y="253.8" textLength="26" class="fg">  </text><text x="130" y="253.8" textLength="26" class="fg">  </text><text x="156" y="253.8" textLength="26" class="fg">  </text><text x="182" y="253.8" textLength="26" class="fg">  </text><text x="208" y="253.8" textLength="26" class="fg">  </text></g><g><animate attributeName="visibility" values="hidden;visible;visible" keyTimes="0.000;0.689;1.000" dur="17.546s" calcMode="discrete" repeatCount="indefinite" /><rect x="26" y="234" width="26" height="26" fill="#5c6370" /><rect x="78" y="234" width="26" height="26" fill="#5c6370" /><rect x="130" y="234" width="26" height="26" fill="#5c6370" /><rect x="182" y="234" width="26" height="26" fill="#5c6370" /><rect x="234" y="234" width="26" height="26" fill="#5c6370" /><text x="0" y="253.8" textLength="26" class="fg">  </text><text x="26" y="253.8" textLength="26" class="fg">  </text><text x="52" y="253.8" textLength="26" class="fg">  </text><text x="78" y="253.8" textLength="26" class="fg">  </text><text x="104" y="253.8" textLength="26" class="fg">  </text><text x="130" y="253.8" textLength="26" class="fg">  </text><text x="156" y="253.8" textLength="26" class="fg">  </text><text x="182" y="253.8" textLength="26" class="fg">  </text><text x="208" y="253.8" textLength="26" class="fg">  </text><text x="234" y="253.8" textLength="26" class="fg">  </text></g><g><animate attributeName="visibility" values="hidden;visible;hidden;hidden" keyTimes="0.000;0.002;0.117;1.000" dur="17.546s" calcMode="discrete" repeatCount="indefinite" /><text x="0" y="279.8" textLength="156" class="fg">Single pixel</text></g><g><animate attributeName="visibility" values="hidden;visible;hidden;hidden" keyTimes="0.000;0.117;0.232;1.000" dur="17.546s" calcMode="discrete" repeatCount="indefinite" /><text x="0" y="279.8" textLength="169" class="fg">Diagonal line</text></g><g><animate attributeName="visibility" values="hidden;visible;hidden;hidden" keyTimes="0.000;0.232;0.347;1.000" dur="17.546s" calcMode="discrete" repeatCount="indefinite" /><text x="0" y="279.8" textLength="169" class="fg">Cross pattern</text></g><g><animate attributeName="visibility" values="hidden;visible;hidden;hidden" keyTimes="0.000;0.347;0.461;1.000" dur="17.546s" calcMode="discrete" repeatCount="indefinite" /><text x="0" y="279.8" textLength="78" class="fg">Border</text></g><g><animate attributeName="visibility" values="hidden;visible;hidden;hidden" keyTimes="0.000;0.461;0.575;1.000" dur="17.546s" calcMode="discrete" repeatCount="indefinite" /><text x="0" y="279.8" textLength="195" class="fg">Colored borders</text></g><g><animate attributeName="visibility" values="hidden;visible;hidden;hidden" keyTimes="0.000;0.575;0.689;1.000" dur="17.546s" calcMode="discrete" repeatCount="indefinite" /><text x="0" y="279.8" textLength="156" class="fg">Grid pattern</text></g><g><animate attributeName="visibility" values="hidden;visible;visible" keyTimes="0.000;0.689;1.000" dur="17.546s" calcMode="discrete" repeatCount="indefinite" /><text x="0" y="279.8" textLength="156" class="fg">Checkerboard</text></g></g></g></svg>